<?xml version="1.0" encoding="utf-8"?>
<!-- Generator: Adobe Illustrator 19.0.0, SVG Export Plug-In . SVG Version: 6.00 Build 0)  -->
<svg version="1.1" id="Layer_1" xmlns="http://www.w3.org/2000/svg" xmlns:xlink="http://www.w3.org/1999/xlink" x="0px" y="0px"
	 viewBox="0 0 595.3 841.9" style="enable-background:new 0 0 595.3 841.9;" xml:space="preserve">
<style type="text/css">
	.st0{fill-rule:evenodd;clip-rule:evenodd;fill:#BDBFC1;}
</style>
<path class="st0" d="M303.3,429.2v16.8h-8.5v-24.8l27.7-0.1c0.9,0,1.7-0.1,2.4-0.3c0.6-0.2,1.1-0.4,1.5-0.8c0.4-0.3,0.7-0.7,0.9-1.2
	c0.2-0.5,0.3-1.1,0.3-1.7c0-0.7-0.1-1.2-0.3-1.7c-0.2-0.4-0.5-0.8-0.9-1.1l0,0c-0.4-0.3-0.9-0.6-1.5-0.8c-0.7-0.2-1.5-0.3-2.4-0.3
	l-27.7,0v-8.1h27.7c2.1,0,4,0.3,5.6,0.8c1.7,0.5,3.2,1.3,4.4,2.4c1.3,1.1,2.2,2.4,2.8,3.9c0.6,1.5,0.9,3.1,0.9,5
	c0,1.5-0.2,2.9-0.7,4.3c-0.5,1.3-1.2,2.5-2.2,3.7c-1,1.1-2.1,2-3.4,2.7c-0.7,0.4-1.5,0.7-2.4,1l11,17.3H329l-10.9-16.8H303.3z"/>
</svg>
