<?xml version="1.0" encoding="utf-8"?>
<!-- Generator: Adobe Illustrator 19.0.0, SVG Export Plug-In . SVG Version: 6.00 Build 0)  -->
<svg version="1.1" id="Layer_1" xmlns="http://www.w3.org/2000/svg" xmlns:xlink="http://www.w3.org/1999/xlink" x="0px" y="0px"
	 viewBox="0 0 595.3 841.9" style="enable-background:new 0 0 595.3 841.9;" xml:space="preserve">
<style type="text/css">
	.st0{fill-rule:evenodd;clip-rule:evenodd;fill:#BDBFC1;}
</style>
<path class="st0" d="M262.8,444.7v-39.8h25c2.1,0,3.9,0.2,5.5,0.7h0c1.7,0.5,3.1,1.1,4.2,2.1c1.2,0.9,2.1,2.1,2.7,3.5
	c0.6,1.4,0.9,2.9,0.9,4.7c0,0.9-0.1,1.7-0.3,2.5c-0.2,0.8-0.5,1.6-0.8,2.3c-0.4,0.7-0.8,1.4-1.4,2l-0.2,0.2c0.5,0.3,0.9,0.7,1.3,1.1
	c0.9,0.8,1.6,1.7,2.3,2.7c0.6,1,1.1,2,1.4,3.1v0c0.3,1.1,0.5,2.3,0.5,3.5c0,2-0.3,3.8-1,5.3c-0.7,1.6-1.7,3-3.1,4.2l0,0
	c-1.3,1.2-2.9,2-4.8,2.6c-1.8,0.6-3.8,0.8-6.1,0.8h-26.2V444.7L262.8,444.7z M289.6,427.2h-16.8h-2.6v11.9h19.4
	c2.1,0,3.7-0.5,4.9-1.6c1.2-1,1.7-2.5,1.7-4.4c0-1.9-0.6-3.3-1.7-4.4C293.4,427.8,291.7,427.2,289.6,427.2L289.6,427.2z
	 M287.6,411.9h-17.4v9h17.5c1.9,0,3.4-0.4,4.3-1.2c1-0.8,1.5-1.9,1.5-3.4c0-1.5-0.5-2.6-1.5-3.4
	C291.1,412.2,289.6,411.9,287.6,411.9z"/>
</svg>
