<?xml version="1.0" encoding="utf-8"?>
<!-- Generator: Adobe Illustrator 19.0.0, SVG Export Plug-In . SVG Version: 6.00 Build 0)  -->
<svg version="1.1" id="Layer_1" xmlns="http://www.w3.org/2000/svg" xmlns:xlink="http://www.w3.org/1999/xlink" x="0px" y="0px"
	 viewBox="0 0 595.3 841.9" style="enable-background:new 0 0 595.3 841.9;" xml:space="preserve">
<style type="text/css">
	.st0{fill-rule:evenodd;clip-rule:evenodd;fill:#BDBFC1;}
</style>
<path class="st0" d="M267.9,429.7v-6.8h18.4v12.9l-0.2,0.7c-1.2,1.7-2.5,3.3-4.1,4.6c-1.5,1.3-3.3,2.4-5.1,3.3
	c-1.9,0.9-3.9,1.6-6.1,2c-2.2,0.4-4.5,0.7-6.9,0.7c-3.7,0-7-0.5-10-1.5c-3-1-5.8-2.5-8.1-4.5c-2.4-2-4.2-4.4-5.4-6.9
	c-1.2-2.6-1.8-5.4-1.8-8.6c0-3.1,0.6-6,1.8-8.6c1.2-2.6,3-4.9,5.4-7c2.4-2,5.1-3.6,8.2-4.6c3-1,6.4-1.5,10-1.5
	c2.3,0,4.5,0.2,6.5,0.6c2.1,0.4,4,1,5.8,1.8c1.8,0.8,3.5,1.8,5,3c1.5,1.2,2.9,2.6,4.1,4.1l0.8,1l-6.7,4.8l-0.8-1
	c-0.7-1-1.6-1.8-2.6-2.6c-1-0.8-2.2-1.4-3.5-2c-1.3-0.6-2.7-1-4.1-1.3c-1.4-0.3-3-0.4-4.5-0.4c-2.5,0-4.8,0.3-6.8,1
	c-2,0.6-3.8,1.6-5.3,2.9c-1.5,1.3-2.7,2.7-3.4,4.3c-0.8,1.6-1.1,3.3-1.1,5.3c0,1.9,0.4,3.7,1.1,5.3c0.8,1.6,1.9,3,3.4,4.3
	c1.5,1.3,3.3,2.3,5.3,2.9c2,0.7,4.3,1,6.8,1c1.6,0,3.1-0.1,4.5-0.4c1.4-0.3,2.8-0.7,4.1-1.3c1.3-0.6,2.4-1.2,3.3-1.9
	c0.8-0.6,1.4-1.2,1.8-1.9V431h-9.8V429.7z"/>
</svg>
