<?xml version="1.0" encoding="utf-8"?>
<!-- Generator: Adobe Illustrator 19.0.0, SVG Export Plug-In . SVG Version: 6.00 Build 0)  -->
<svg version="1.1" id="Layer_1" xmlns="http://www.w3.org/2000/svg" xmlns:xlink="http://www.w3.org/1999/xlink" x="0px" y="0px"
	 viewBox="0 0 841.9 595.3" style="enable-background:new 0 0 841.9 595.3;" xml:space="preserve">
<style type="text/css">
	.st0{fill-rule:evenodd;clip-rule:evenodd;fill:#080028;}
	.st1{fill-rule:evenodd;clip-rule:evenodd;fill:#FFFFFF;}
	.st2{fill-rule:evenodd;clip-rule:evenodd;fill:#FFCC29;}
</style>
<path class="st0" d="M360.8,283.1v23.9c0,10.7-8.8,14.8-18.4,14.8c-3.5,0-7.1-0.6-10.2-1.5c8.8,0.1,20.3-1.5,20.3-14v-23.3
	L360.8,283.1z"/>
<path class="st0" d="M425.7,304.8v14.8h-7.5v-21.9l24.4-0.1c0.8,0,1.5-0.1,2.1-0.3c0.5-0.2,1-0.4,1.4-0.7c0.3-0.3,0.6-0.6,0.8-1
	c0.2-0.4,0.3-0.9,0.3-1.5c0-0.6-0.1-1.1-0.3-1.5c-0.2-0.4-0.4-0.7-0.8-1l0,0c-0.4-0.3-0.8-0.5-1.4-0.7c-0.6-0.2-1.3-0.3-2.1-0.3
	l-24.4,0v-7.1h24.4c1.8,0,3.5,0.2,5,0.7c1.5,0.5,2.8,1.2,3.9,2.1c1.1,0.9,2,2.1,2.5,3.4c0.6,1.3,0.8,2.8,0.8,4.4
	c0,1.3-0.2,2.6-0.7,3.8c-0.4,1.2-1.1,2.2-2,3.2c-0.9,1-1.9,1.8-3,2.4c-0.7,0.4-1.4,0.6-2.1,0.9l9.7,15.3h-8.4l-9.6-14.8H425.7z"/>
<path class="st0" d="M471.9,283.5h4.7l18.5,36.1h-8.2l-4.4-8.6H466l-4.4,8.6h-8.1L471.9,283.5L471.9,283.5z M480.8,306.5h1.8
	l-8.4-16.6l-8.5,16.6H480.8z"/>
<path class="st0" d="M394.4,305.3v-6h16.2v11.4l-0.2,0.6c-1,1.5-2.2,2.9-3.6,4c-1.4,1.2-2.9,2.2-4.5,2.9c-1.7,0.8-3.4,1.4-5.4,1.8
	c-1.9,0.4-3.9,0.6-6.1,0.6c-3.2,0-6.2-0.4-8.9-1.3c-2.7-0.9-5.1-2.2-7.2-4c-2.1-1.8-3.7-3.8-4.8-6.1c-1.1-2.3-1.6-4.8-1.6-7.6
	c0-2.8,0.5-5.3,1.6-7.6c1.1-2.3,2.7-4.3,4.8-6.1c2.1-1.8,4.5-3.1,7.2-4c2.7-0.9,5.6-1.3,8.8-1.3c2,0,3.9,0.2,5.7,0.5
	c1.8,0.4,3.5,0.9,5.1,1.6c1.6,0.7,3.1,1.6,4.4,2.6c1.3,1,2.5,2.3,3.6,3.6l0.7,0.9l-5.9,4.2l-0.7-0.9c-0.7-0.9-1.4-1.6-2.3-2.3
	c-0.9-0.7-1.9-1.3-3-1.8c-1.1-0.5-2.4-0.9-3.6-1.1c-1.3-0.3-2.6-0.4-4-0.4c-2.2,0-4.2,0.3-6,0.9c-1.8,0.6-3.3,1.4-4.7,2.6
	c-1.4,1.1-2.4,2.4-3,3.8c-0.7,1.4-1,2.9-1,4.7c0,1.7,0.3,3.3,1,4.7c0.7,1.4,1.7,2.7,3,3.8c1.4,1.1,2.9,2,4.7,2.6
	c1.8,0.6,3.8,0.9,6,0.9c1.4,0,2.7-0.1,4-0.4c1.3-0.2,2.5-0.6,3.7-1.1c1.1-0.5,2.1-1,2.9-1.7c0.7-0.5,1.2-1.1,1.6-1.7v-2.2h-8.6
	V305.3z"/>
<polygon class="st0" points="583.5,318.5 583.5,283.4 591.1,283.4 591.1,319.6 583.5,319.6 "/>
<polygon class="st0" points="529.7,318.5 529.7,283.4 537.4,283.4 537.4,319.6 529.7,319.6 "/>
<polygon class="st0" points="556.6,318.5 556.6,290.5 542.3,290.5 542.3,283.5 578.5,283.5 578.5,290.5 564.2,290.5 564.2,319.6 
	556.6,319.6 "/>
<path class="st0" d="M587.8,272.3c-1.3,1.6-2.4,3.4-3.4,5.2h6.2c1.2-1.9,2.7-3.6,4.3-5.2H587.8z"/>
<polygon class="st0" points="285.8,283.3 293.6,283.3 293.6,312.4 318.8,312.4 318.8,319.8 285.8,319.8 "/>
<polygon class="st1" points="479.6,305.1 467.2,305.1 474.2,291.5 481.1,305.1 "/>
<path class="st0" d="M506.3,319.5h-3.4c-6-12.1-12.1-24.1-18.1-36.1h8.1l12,24l11.9-24h8.3c-6,12-12.1,24.1-18.1,36.1H506.3z"/>
<path class="st0" d="M242.6,318.5v-35.1h22.1c1.8,0,3.5,0.2,4.9,0.6h0c1.5,0.4,2.7,1,3.7,1.8c1.1,0.8,1.8,1.9,2.4,3.1
	c0.5,1.2,0.8,2.6,0.8,4.1c0,0.8-0.1,1.5-0.2,2.2c-0.2,0.7-0.4,1.4-0.7,2c-0.3,0.6-0.7,1.2-1.2,1.7l-0.2,0.2c0.4,0.3,0.8,0.6,1.2,0.9
	c0.8,0.7,1.5,1.5,2,2.4c0.5,0.9,1,1.8,1.2,2.8v0c0.3,1,0.4,2,0.4,3.1c0,1.7-0.3,3.3-0.9,4.7c-0.6,1.4-1.5,2.7-2.7,3.7l0,0
	c-1.2,1-2.6,1.8-4.2,2.3c-1.6,0.5-3.4,0.7-5.3,0.7h-23.1V318.5L242.6,318.5z M266.3,303.1h-14.8h-2.3v10.5h17.1
	c1.9,0,3.3-0.5,4.3-1.4c1-0.9,1.5-2.2,1.5-3.9c0-1.6-0.5-2.9-1.5-3.8C269.6,303.6,268.1,303.1,266.3,303.1L266.3,303.1z
	 M264.5,289.6h-15.4v8h15.4c1.7,0,3-0.3,3.8-1c0.9-0.7,1.3-1.7,1.3-3c0-1.3-0.4-2.3-1.3-3C267.5,289.9,266.2,289.6,264.5,289.6z"/>
<path class="st2" d="M331.5,284.6v19.1c-0.3,9.4,9.2,9.9,14.5,7.2c-5.3,6.8-19,5.1-21.7-3.3c-0.4-1.3-0.7-2.8-0.7-4.5l0-19.7h7.9
	V284.6z"/>
</svg>
