<svg xmlns="http://www.w3.org/2000/svg" width="100" height="30" viewBox="0 0 100 30">
    <path fill="#FEFEFE" fill-rule="evenodd" d="M7.47 12.682V4.138a.397.397 0 0 0-.397-.397h-2.94a.397.397 0 0 0-.398.397v8.544c0 .219.178.397.397.397h2.94c.22 0 .398-.178.398-.397zm0 13.072v-8.543a.397.397 0 0 0-.397-.397h-2.94a.397.397 0 0 0-.398.397v8.543c0 .22.178.397.397.397h2.94c.22 0 .398-.178.398-.397zM9.337.006c1.032 0 1.868.837 1.868 1.868v11.205a1.867 1.867 0 0 1-1.868 1.867c1.032 0 1.868.836 1.868 1.868v11.205a1.867 1.867 0 0 1-1.868 1.867H.53a.53.53 0 0 1-.529-.53V.537a.53.53 0 0 1 .53-.53h8.807zm76.17 0c.219 0 .397.178.397.398V26.15a3.735 3.735 0 0 1-3.735 3.735h-3.735a3.735 3.735 0 0 1-3.735-3.735V.404c0-.22.178-.397.397-.397h2.94c.22 0 .398.177.398.397v25.35c0 .22.178.397.397.397h2.94c.22 0 .398-.178.398-.397V.404c0-.22.177-.397.397-.397h2.94zm10.781 14.94l3.581 14.282a.53.53 0 0 1-.513.658h-2.79a.53.53 0 0 1-.514-.402l-1.689-6.819-1.7 6.822a.53.53 0 0 1-.514.401l-2.747-.002a.53.53 0 0 1-.513-.657l3.55-14.283L88.878.663a.53.53 0 0 1 .513-.658L92.147 0c.243 0 .456.165.514.401l1.702 6.826L96.043.41a.53.53 0 0 1 .513-.403h2.8a.53.53 0 0 1 .514.659l-3.582 14.281zm-58.939-2.264V4.138a.397.397 0 0 0-.397-.397h-2.94a.397.397 0 0 0-.397.397v8.544c0 .219.177.397.397.397h2.94c.22 0 .397-.178.397-.397zm0-12.676a3.735 3.735 0 0 1 3.735 3.735v25.616a.53.53 0 0 1-.529.53h-2.676a.53.53 0 0 1-.53-.53V17.21a.397.397 0 0 0-.397-.397h-2.94a.397.397 0 0 0-.397.397v12.146a.53.53 0 0 1-.53.53H30.41a.53.53 0 0 1-.53-.53V3.74A3.735 3.735 0 0 1 33.615.006h3.734zM55.495.01a.53.53 0 0 1 .53.529v28.82a.53.53 0 0 1-.53.53h-2.857a.53.53 0 0 1-.514-.401l-3.57-15.118v14.99a.53.53 0 0 1-.529.529H45.35a.53.53 0 0 1-.53-.53V.539a.53.53 0 0 1 .53-.53h2.86a.53.53 0 0 1 .513.4l3.568 15.119V.537a.53.53 0 0 1 .53-.528h2.675zM67.23 25.754V4.14a.397.397 0 0 0-.397-.397h-2.94a.397.397 0 0 0-.398.397v21.615c0 .22.178.397.397.397h2.94c.22 0 .398-.178.398-.397zm0-25.747a3.735 3.735 0 0 1 3.735 3.735V26.15a3.735 3.735 0 0 1-3.735 3.735h-6.94a.53.53 0 0 1-.53-.53V.537a.53.53 0 0 1 .53-.53h6.94zm-44.82 12.675V4.138a.397.397 0 0 0-.396-.397h-2.941a.397.397 0 0 0-.397.397v8.544c0 .219.178.397.397.397h2.94c.22 0 .398-.178.398-.397zM24.278.006c1.032 0 1.867.837 1.867 1.868v11.205a1.867 1.867 0 0 1-1.867 1.867c1.032 0 1.867.836 1.867 1.868v12.543a.53.53 0 0 1-.529.53H22.94a.53.53 0 0 1-.53-.53V17.21a.397.397 0 0 0-.396-.397h-2.941a.397.397 0 0 0-.397.397v12.146a.53.53 0 0 1-.53.53H15.47a.53.53 0 0 1-.53-.53V.404c0-.22.178-.398.398-.398h8.94z"/>
</svg>
